# xmcd
#
# Track frame offsets: 
#        150
#        15683
#        29374
#        43365
#        55327
#        67881
#        81537
#        96134
#        108181
#        131079
#        157195
#        175572
#        191505
#        208402
#
# Disc length: 2996 seconds
#
# Revision: 0
# Processed by: cddbd v1.4PL0 Copyright (c) Steve Scherf et al.
# Submitted via: ExactAudioCopy v0.90a11
#
DISCID=c70bb20e
DTITLE=Pete Wernick's Live Five - Up All Night
DYEAR=1900
DGENRE=
TTITLE0=Alabamy Bound
TTITLE1=Hold It
TTITLE2=Spirit in a Bottle
TTITLE3=Seven Come Eleven
TTITLE4=Foggy Mt. Breakdown
TTITLE5=My Buddy
TTITLE6=Owensboro Hop
TTITLE7=Pick and Roll
TTITLE8=Up All Night
TTITLE9=On A Roll
TTITLE10=Sweet Georgia Brown
TTITLE11=The Doctor is In
TTITLE12=Foggy Mt. Special
TTITLE13=Soldier's Joy 5 Ways
EXTD=
EXTT0=
EXTT1=
EXTT2=
EXTT3=
EXTT4=
EXTT5=
EXTT6=
EXTT7=
EXTT8=
EXTT9=
EXTT10=
EXTT11=
EXTT12=
EXTT13=
PLAYORDER=
